PathFileType	4	(X/Y/Z)	S01_0008_Gait_markers.trc
DataRate	CameraRate	NumFrames	NumMarkers	Units	OrigDataRate	OrigDataStartFrame	OrigNumFrames
250.000000	250.000000	4	54	mm	250.000000	0	340
Frame#	Time	HEAD_ANT			R_HEAD			L_HEAD			C7			R_BACK			L_BACK			STERNUM			R_ACROMION			R_HUM_PROX			R_HUM_ANT			R_HUM_POST			R_ELBOW_LAT			R_ELBOW_MED			R_FOREARM			R_WIRST_LAT			R_WRITS_MED			R_HAND			L_ACROMION			L_HUM_PROX			L_HUM_ANT			L_HUM_POST			L_ELBOW_LAT			L_ELBOW_MED			L_FOREARM			L_WRIST_LAT			L_WIRST_MED			L_HAND			R_ILIAC			SACRUM			L_ILIAC			R_GTROCH			R_THIGH__1			R_THIGH_2			R_THIGH_3			R_THIGH_4			R_SHANK_1			R_SHANK_2			R_SHANK_3			R_SHANK_4			R_HEEL			R_FOOT_LAT			R_FOOT_MED			L_GTROCH			L_THIGH_1			L_THIGH_2			L_THIGH_3			L_THIGH_4			L_SHANK_1			L_SHANK_2			L_SHANK_3			L_SHANK_4			L_HEEL			L_FOOT_LAT			L_FOOT_MED			
		X1	Y1	Z1	X2	Y2	Z2	X3	Y3	Z3	X4	Y4	Z4	X5	Y5	Z5	X6	Y6	Z6	X7	Y7	Z7	X8	Y8	Z8	X9	Y9	Z9	X10	Y10	Z10	X11	Y11	Z11	X12	Y12	Z12	X13	Y13	Z13	X14	Y14	Z14	X15	Y15	Z15	X16	Y16	Z16	X17	Y17	Z17	X18	Y18	Z18	X19	Y19	Z19	X20	Y20	Z20	X21	Y21	Z21	X22	Y22	Z22	X23	Y23	Z23	X24	Y24	Z24	X25	Y25	Z25	X26	Y26	Z26	X27	Y27	Z27	X28	Y28	Z28	X29	Y29	Z29	X30	Y30	Z30	X31	Y31	Z31	X32	Y32	Z32	X33	Y33	Z33	X34	Y34	Z34	X35	Y35	Z35	X36	Y36	Z36	X37	Y37	Z37	X38	Y38	Z38	X39	Y39	Z39	X40	Y40	Z40	X41	Y41	Z41	X42	Y42	Z42	X43	Y43	Z43	X44	Y44	Z44	X45	Y45	Z45	X46	Y46	Z46	X47	Y47	Z47	X48	Y48	Z48	X49	Y49	Z49	X50	Y50	Z50	X51	Y51	Z51	X52	Y52	Z52	X53	Y53	Z53	X54	Y54	Z54	

1	0	177.9774627685547	1735.11962890625	-372.0794982910152	117.740852355957	1683.373779296875	-297.4353027343746	122.0366592407227	1687.15625	-445.3895568847652	-17.05043601989746	1515.798706054688	-380.0819091796872	-97.33314514160156	1320.610107421875	-317.0278015136716	-88.69416809082031	1324.200317382812	-456.4985351562497	154.8165893554688	1349.61376953125	-367.3166198730466	48.8788948059082	1466.42822265625	-202.2875671386716	-4.239528179168701	1307.304565429688	-114.9335708618161	53.17985153198242	1219.827392578125	-104.7825927734372	-68.433349609375	1226.156982421875	-109.6410217285154	-23.59218788146973	1118.272338867188	-97.44409179687476	-35.89297103881836	1113.6123046875	-177.3901062011716	79.62744140625	937.0298461914062	-87.07658386230447	124.9330215454102	873.9417114257812	-122.4935150146482	54.99530792236328	846.8130493164062	-95.23828124999982	126.0927200317383	786.3185424804688	-68.16587829589827	67.95735168457031	1469.50439453125	-541.7639770507809	55.40955352783203	1304.268188476563	-640.0041503906247	121.638671875	1226.662475585938	-634.0205078124998	2.319170713424683	1223.875244140625	-667.8956298828123	67.01409912109375	1122.775756835938	-673.2723388671873	11.93078231811523	1112.521728515625	-619.1013183593748	202.7094879150391	971.4321899414064	-637.7929687499998	245.6130981445312	924.9299316406251	-580.6222534179685	205.8529357910156	886.0789184570314	-637.803039550781	293.0884704589844	850.4442749023439	-619.997863769531	48.99530410766602	1066.191162109375	-203.0250854492185	-77.78707122802734	1041.944946289062	-366.6396179199216	40.67827606201172	1061.573608398438	-548.008117675781	13.31984615325928	914.5244140625	-185.3385925292967	122.6497650146484	642.4849243164062	-204.4140319824217	172.2912750244141	673.9883422851562	-198.7119750976561	206.1032409667969	577.4054565429688	-233.0552368164061	141.9848175048828	563.9376831054688	-227.3845672607421	199.5909271240234	349.0841674804688	-219.3401489257812	259.2460632324219	346.8955383300782	-231.0430145263671	282.1512451171875	265.5660705566407	-246.8649902343749	219.4356231689453	250.9149017333985	-240.993179321289	255.2707214355469	39.27774429321296	-328.8358154296875	414.4212036132812	58.74440383911138	-238.38525390625	460.3649291992188	94.91447448730476	-324.3050842285156	-5.433202743530273	955.5055541992189	-546.8525390624998	9.837662696838379	661.9876098632814	-528.0292358398436	-38.70268630981445	694.0899047851564	-539.6612548828124	-74.02635192871094	599.8722534179689	-505.7654418945311	-11.61356449127197	586.6720581054689	-501.8682250976561	-120.9715270996094	333.6739501953126	-483.9265136718749	-181.3922882080078	326.367645263672	-481.5733642578124	-202.7389068603516	243.9943847656251	-460.8756103515624	-138.7306976318359	235.3483428955079	-457.4848022460937	-276.419189453125	67.44899749755868	-380.3710327148438	-106.2477722167969	18.61205673217783	-452.9129028320312	-68.66204833984375	30.7336673736573	-348.4297180175781	
2	0.004	183.4875030517578	1733.912231445312	-371.6449890136715	123.1905975341797	1682.084228515625	-297.0847473144527	127.464111328125	1685.804809570312	-444.9144897460934	-11.7010383605957	1514.804443359375	-379.8446044921872	-92.01985931396484	1319.489624023438	-316.8971252441403	-83.69920349121094	1323.177612304688	-456.2430114746091	160.2413024902344	1348.399658203125	-367.0795593261716	54.11990356445312	1465.027221679688	-202.10383605957	1.029373288154602	1306.140380859375	-114.41975402832	58.09394073486328	1218.502197265625	-104.536323547363	-63.87662887573242	1224.969970703125	-109.5869674682614	-19.75936889648438	1116.910522460938	-97.25893402099585	-30.9251594543457	1112.307373046875	-177.5214080810544	84.32310485839844	935.7228393554688	-86.76161193847635	129.7827606201172	872.6461791992188	-122.0027236938475	59.77615356445312	845.4071655273438	-95.58522796630841	130.5813293457031	784.8453369140625	-67.98541259765608	73.3643798828125	1468.2353515625	-541.6451416015622	61.20259857177734	1303.162475585938	-639.5394897460934	127.3102645874023	1225.779296875	-633.9269409179685	7.892796039581299	1222.767822265625	-667.973205566406	72.96302032470703	1121.672485351563	-673.1729736328123	17.8481330871582	1111.332153320313	-619.1618652343748	209.0744781494141	970.4624023437501	-637.234680175781	251.8766937255859	924.2853393554689	-580.1359252929685	212.3611145019531	885.2161254882814	-637.4016113281248	299.5701599121094	849.7940673828126	-619.6313476562498	54.95304489135742	1065.105224609375	-202.751770019531	-72.6444091796875	1041.078979492188	-366.2490539550779	46.15793609619141	1060.427124023438	-547.8980712890623	18.54362869262695	913.114501953125	-185.4578857421873	127.5401763916016	641.0592041015625	-204.5994720458983	177.0410003662109	672.5560913085938	-198.3241119384764	211.5780181884766	576.17041015625	-232.4918365478514	147.0660095214844	562.5786743164062	-227.5570068359374	208.0007019042969	348.2841796875001	-219.8445892333984	267.7057189941406	347.1357116699219	-231.7947845458984	291.9319152832031	266.1802062988282	-247.6911010742187	229.1777496337891	250.2527008056641	-241.9993133544921	268.4836120605469	39.62986755371101	-329.4386291503906	428.2561950683594	61.31105422973638	-240.0361785888672	472.8180541992188	98.16203308105476	-326.5308227539062	-0.6140580177307129	954.8533935546876	-546.8598022460935	13.24620342254639	661.3658447265626	-528.2836303710936	-35.08771514892578	693.7116699218751	-540.0516357421874	-70.78465270996094	599.6301269531251	-506.032012939453	-8.483569145202637	586.2991943359376	-502.376251220703	-118.9744415283203	333.5634765625001	-484.1511535644531	-179.6835021972656	326.564666748047	-481.6383056640624	-201.5570983886719	244.5947265625001	-460.9844055175781	-137.5087585449219	235.5583343505861	-457.6967163085937	-276.2046813964844	68.25405120849618	-380.5345153808594	-106.2635955810547	18.56602096557627	-452.8910522460938	-68.64240264892578	30.73153114318855	-348.4468078613281	
3	0.008	189.0586853027344	1732.897705078125	-371.3227539062496	128.7337493896484	1681.015869140625	-296.7198486328121	132.7314758300781	1684.807495117188	-444.5156860351559	-6.414719581604004	1513.70654296875	-379.4512023925778	-86.67888641357422	1318.16455078125	-316.8594055175778	-78.03762054443359	1321.936645507812	-455.8200073242185	165.5148468017578	1347.078247070312	-366.7695007324216	59.46868133544922	1463.836303710938	-201.7671051025387	6.105815410614014	1304.738159179688	-114.3249206542966	63.03736877441406	1217.174926757812	-104.0786514282224	-58.37871932983398	1223.69921875	-109.6805038452146	-13.9469633102417	1115.631469726562	-97.25585174560523	-25.67795753479004	1110.912841796875	-177.3545379638669	89.01972961425781	934.2225341796875	-86.70819854736307	134.6544036865234	871.1200561523438	-121.8958892822264	64.55983734130859	844.001708984375	-95.79360961914044	135.0947418212891	783.4498901367188	-67.73792266845686	78.75888061523438	1467.17724609375	-541.4276123046872	66.72801208496094	1302.002319335938	-639.2233276367184	132.9408264160156	1224.710693359375	-633.7680053710935	13.69864654541016	1221.613037109375	-667.7644042968748	78.95051574707031	1120.525268554688	-673.0373535156248	23.78039169311523	1110.093627929688	-619.2310791015623	215.3154754638672	969.6284790039064	-636.842834472656	258.1800537109375	923.5410766601564	-579.913391113281	218.7660522460938	884.4976196289064	-637.1907958984373	306.0207824707031	849.2977905273439	-619.2854003906248	60.54026794433594	1063.578857421875	-202.6750335693357	-67.14462280273438	1039.945556640625	-365.8646240234373	51.38309097290039	1059.399536132813	-547.9033203124998	23.79987716674805	911.7474365234375	-185.4917297363279	132.6323394775391	639.558837890625	-204.7166290283202	182.1165008544922	671.088134765625	-198.8408355712889	216.5972137451172	575.2373657226562	-233.1832427978514	152.2333068847656	561.400634765625	-227.9571075439452	216.3903961181641	347.5939025878907	-220.2235260009765	275.9713134765625	347.3471069335938	-232.3849639892577	301.5472412109375	266.5903015136719	-248.6644439697265	239.4542083740234	249.9469299316407	-241.8627471923828	281.6721801757812	39.96086883544929	-329.8520202636719	441.7100524902344	63.99020004272467	-241.6438446044922	485.0265197753906	101.3562698364259	-328.7249450683594	4.259099006652832	954.2279052734376	-546.6636962890623	16.85561561584473	660.6059570312501	-528.3022460937499	-31.29463768005371	693.4429321289064	-540.4461059570311	-67.38697814941406	599.3195190429689	-506.162139892578	-5.103607654571533	585.6871337890626	-502.6431884765624	-117.2886428833008	333.5006713867189	-484.2762451171874	-177.9013366699219	327.106170654297	-481.9319458007812	-200.4323120117188	244.8710327148439	-461.0315246582031	-136.3342437744141	235.5604095458986	-457.9972229003906	-276.0413513183594	69.02750396728524	-380.7008056640625	-106.3009033203125	18.5647087097169	-452.9138488769531	-68.65220642089844	30.75389671325691	-348.5032958984375	
4	0.012	194.4209747314453	1731.6474609375	-370.9458007812496	134.2276000976562	1679.707275390625	-296.4032287597652	138.3773498535156	1683.603881835938	-444.0625305175777	-0.8240243792533875	1512.614990234375	-378.9706115722653	-81.11962127685547	1317.00341796875	-316.7051696777341	-72.77794647216797	1320.9296875	-455.5273742675778	170.9645385742188	1345.764892578125	-366.5543823242185	64.78610992431641	1462.571411132812	-201.3869934082028	11.18724632263184	1303.499633789062	-114.1712570190427	67.95887756347656	1215.86181640625	-103.7891159057614	-53.42798614501953	1222.470947265625	-109.8166503906247	-9.047649383544922	1114.385131835938	-97.16503906249976	-20.38029098510742	1109.651977539062	-177.128967285156	93.83114624023438	932.991455078125	-86.27765655517557	139.5306243896484	869.9246215820312	-121.5766296386717	69.46633911132812	842.5540771484375	-95.84449005126935	139.8725433349609	781.9005126953125	-67.42264556884749	84.15135192871094	1465.941528320313	-541.0449829101559	72.11740112304688	1300.9296875	-639.0751342773434	138.7275848388672	1223.652221679688	-633.6002197265623	19.44756126403809	1220.4794921875	-667.4923095703123	84.94661712646484	1119.515258789063	-672.9409179687498	29.68622398376465	1108.833740234375	-619.243957519531	221.2857971191406	969.0200195312501	-637.1373291015623	264.2861633300781	922.7352905273439	-579.735412597656	225.0577392578125	883.5902709960939	-636.9888916015623	312.4326477050781	848.7346191406251	-618.926818847656	66.28601837158203	1062.270629882812	-202.5936737060545	-61.85578155517578	1038.980712890625	-365.5863647460935	56.77461624145508	1058.203857421875	-547.8524169921873	29.31430244445801	910.2455444335938	-185.7572021484373	137.7266235351562	638.25537109375	-204.9370117187499	187.2402954101562	669.786865234375	-198.7067413330077	221.6700134277344	573.758544921875	-233.483184814453	157.44970703125	559.8568115234375	-228.2946472167968	224.7080688476562	346.7032775878907	-220.5872497558593	284.2247009277344	347.5392761230469	-232.790069580078	311.0173645019531	267.2438964843751	-249.3236236572265	248.9523315429688	249.4500732421876	-242.7754211425781	294.2315063476562	40.46869659423835	-330.8076171875	454.6353759765625	66.31395721435553	-243.2733154296875	496.8373107910156	104.4869613647462	-330.7369995117188	9.066691398620605	953.5352783203126	-546.6662597656248	20.48213958740234	660.0344238281251	-528.8155517578124	-27.28092575073242	692.9861450195314	-540.3663940429686	-63.88952255249023	598.9974975585939	-506.1880493164061	-1.59404182434082	585.0833129882814	-502.6248474121093	-115.3062286376953	333.4478149414064	-484.5008239746093	-175.9569244384766	327.4898376464845	-482.2426147460937	-199.0013427734375	245.3273162841798	-461.3623046874999	-134.8533020019531	235.6102447509767	-458.1409912109374	-275.8416442871094	69.75606536865243	-380.8108520507812	-106.308723449707	18.54778289794932	-452.9289855957031	-68.64142608642578	30.71049308776863	-348.5494384765625	
